<?xml version="1.0" standalone="no"?>
<!DOCTYPE svg PUBLIC "-//W3C//DTD SVG 20010904//EN"
 "http://www.w3.org/TR/2001/REC-SVG-20010904/DTD/svg10.dtd">
<svg version="1.0" xmlns="http://www.w3.org/2000/svg"
 width="384.000000pt" height="384.000000pt" viewBox="0 0 384.000000 384.000000"
 preserveAspectRatio="xMidYMid meet">
<metadata>
Created by potrace 1.14, written by Peter Selinger 2001-2017
</metadata>
<g transform="translate(0.000000,384.000000) scale(0.100000,-0.100000)"
fill="#000000" stroke="none">
<path d="M1678 3835 c-2 -2 -30 -5 -63 -9 -165 -17 -289 -53 -329 -95 -27 -28
-28 -34 -23 -88 7 -64 8 -70 32 -163 9 -36 18 -72 20 -80 21 -103 124 -450
134 -450 10 0 51 46 121 135 30 39 60 74 67 78 8 5 11 11 9 15 -4 6 -25 85
-72 259 -16 63 -20 105 -11 119 9 16 415 18 503 4 143 -24 274 -66 274 -88 0
-14 -114 -173 -165 -229 -11 -12 -39 -46 -62 -75 -43 -55 -402 -497 -431 -533
-9 -11 -53 -65 -97 -120 -44 -55 -82 -102 -85 -105 -3 -3 -18 -21 -34 -40 -47
-58 -107 -120 -115 -120 -5 0 -12 12 -15 28 -19 76 -29 113 -86 317 -34 121
-63 227 -65 235 -2 8 -26 101 -54 205 -29 105 -65 242 -82 305 -16 63 -34 126
-39 140 -12 30 -64 67 -104 74 -65 12 -174 -61 -342 -228 -265 -263 -413 -516
-502 -856 -46 -176 -47 -187 -19 -194 61 -15 215 -34 225 -27 11 7 19 33 27
89 9 66 62 214 117 332 88 189 187 331 321 463 74 72 90 75 100 19 6 -31 6
-34 41 -162 13 -52 34 -131 46 -175 12 -44 32 -120 46 -170 14 -49 26 -97 28
-106 5 -18 74 -274 138 -507 48 -177 68 -206 139 -210 65 -4 100 14 155 81 57
68 381 470 429 532 17 21 37 46 45 54 8 9 31 37 50 61 19 25 37 47 40 50 6 6
62 75 330 410 113 140 207 257 210 260 18 15 144 178 155 200 21 41 11 108
-22 143 -75 78 -380 179 -643 213 -50 6 -337 14 -342 9z"/>
<path d="M3078 3298 c-23 -29 -46 -57 -50 -63 -4 -5 -19 -24 -32 -41 l-25 -31
82 -86 c194 -202 271 -306 351 -471 51 -106 106 -267 120 -348 8 -47 7 -47
-122 -12 -54 14 -106 28 -117 30 -19 4 -152 39 -430 114 -207 57 -566 148
-600 154 -16 3 -44 7 -60 10 -43 8 -92 -25 -115 -76 l-18 -42 38 -105 c21 -58
95 -254 165 -436 70 -181 149 -386 175 -455 111 -296 328 -843 374 -944 30
-65 41 -79 71 -92 46 -19 82 -8 168 50 168 112 339 292 474 496 69 104 152
262 178 340 1 3 4 12 7 20 25 66 48 157 48 186 0 46 -25 89 -64 108 -31 16
-323 102 -380 112 -16 3 -33 7 -38 10 -4 3 -16 7 -25 9 -10 2 -72 17 -138 34
-66 16 -121 28 -123 26 -6 -5 14 -64 60 -182 l40 -101 72 -22 c39 -12 82 -26
96 -30 14 -5 65 -19 113 -31 105 -27 104 -16 21 -187 -84 -172 -208 -335 -361
-476 l-31 -28 -20 43 c-11 24 -63 152 -115 284 -326 828 -450 1155 -443 1163
4 3 55 -7 156 -32 8 -2 56 -16 105 -29 50 -14 108 -30 130 -36 22 -5 81 -21
130 -34 155 -43 672 -178 700 -183 11 -2 31 -5 45 -8 29 -4 52 6 99 46 36 31
34 11 15 208 -28 291 -191 672 -397 924 -68 83 -255 266 -272 266 -7 0 -33
-24 -57 -52z"/>
<path d="M91 1828 c-50 -25 -66 -63 -64 -153 5 -222 101 -526 246 -780 92
-162 285 -393 331 -396 6 0 20 -2 31 -4 49 -9 124 53 395 330 193 196 207 214
178 216 -13 1 -19 2 -83 13 -16 3 -50 9 -75 12 -25 3 -64 9 -86 13 l-41 8
-139 -135 -138 -135 -29 34 c-110 128 -219 342 -276 539 -40 139 -42 166 -16
163 53 -5 128 -15 205 -28 47 -8 105 -16 130 -19 25 -3 54 -8 65 -10 28 -5 85
-15 120 -20 141 -23 173 -28 190 -31 60 -8 122 -18 230 -36 66 -11 136 -22
155 -24 19 -3 44 -7 56 -9 12 -2 45 -7 75 -11 30 -4 56 -8 59 -10 3 -2 32 -6
64 -10 33 -3 62 -8 65 -9 6 -4 96 -18 119 -19 16 -1 15 -8 -5 -37 -21 -30 5
-4 -443 -456 -470 -476 -460 -464 -460 -521 0 -52 33 -88 118 -131 102 -51
321 -122 422 -138 25 -3 54 -8 65 -11 117 -24 440 -23 565 2 38 8 72 14 105
20 59 11 220 57 247 71 16 8 28 18 28 23 0 23 -63 174 -88 209 -8 11 -30 8
-120 -17 -167 -46 -281 -63 -437 -65 -198 -1 -318 15 -477 65 l-69 22 28 30
c15 16 176 179 356 361 611 617 608 612 601 665 -10 79 -47 108 -162 126 -20
3 -62 10 -92 15 -30 5 -71 12 -90 15 -19 3 -46 7 -60 10 -14 2 -43 7 -65 10
-22 4 -52 8 -67 11 -16 2 -43 6 -60 9 -33 4 -152 23 -198 31 -26 4 -145 22
-190 29 -14 1 -52 8 -85 14 -33 6 -76 13 -95 15 -19 3 -66 10 -105 16 -38 6
-81 13 -95 15 -14 2 -52 8 -85 14 -33 5 -78 13 -100 16 -23 3 -50 7 -60 9 -11
2 -42 7 -70 10 -27 4 -57 9 -65 11 -8 2 -37 6 -64 10 -27 3 -52 8 -55 10 -3 2
-28 6 -56 9 -27 3 -59 8 -71 10 -19 4 -96 14 -152 21 -12 1 -40 -6 -61 -17z"/>
</g>
</svg>
